<svg width="186" height="186" viewBox="0 0 186 186" fill="none" xmlns="http://www.w3.org/2000/svg">
<path d="M163.304 112H22.6959C11.8687 112 3 103.296 3 92.5C3 81.7805 11.7918 73 22.6959 73H163.304C174.131 73 183 81.7043 183 92.5C183 103.304 174.208 112 163.304 112Z" fill="#1B1464" stroke="white" stroke-width="5" stroke-miterlimit="10"/>
<path d="M164.207 74.8133L42.4582 145.363C33.0442 150.796 21.0394 147.569 15.627 138.119C10.2146 128.67 13.4296 116.62 22.8436 111.187L144.593 40.6369C154.007 35.2041 166.011 38.4312 171.424 47.8807C176.759 57.2531 173.544 69.3032 164.207 74.8133Z" fill="#0000FF" stroke="white" stroke-width="5" stroke-miterlimit="10"/>
<path d="M145.359 41.6318L74.812 164.098C69.3793 173.568 57.3296 176.802 47.8804 171.357C38.4312 165.913 35.2042 153.838 40.6369 144.368L111.184 21.9016C116.617 12.4321 128.667 9.1982 138.116 14.6425C147.565 20.0868 150.801 32.1623 145.359 41.6318V41.6318Z" fill="#00FFFF" stroke="white" stroke-width="5" stroke-miterlimit="10"/>
<path d="M113 22.6959V163.304C113 174.131 104.073 183 93 183C82.0056 183 73 174.208 73 163.304V22.6959C73 11.8687 81.9275 3 93 3C104.081 3 113 11.7918 113 22.6959V22.6959Z" fill="#00FF00" stroke="white" stroke-width="5" stroke-miterlimit="10"/>
<path d="M74.8133 21.8268L145.363 144.369C150.796 153.838 147.569 165.913 138.119 171.358C128.67 176.802 116.62 173.568 111.187 164.099L40.6369 41.634C35.2041 32.1647 38.4312 20.0894 47.8807 14.6452C57.3303 9.20101 69.3804 12.4348 74.8133 21.8268V21.8268Z" fill="#FFFF00" stroke="white" stroke-width="5" stroke-miterlimit="10"/>
<path d="M42.3719 40.6407L164.16 111.188C173.571 116.621 176.784 128.67 171.374 138.12C165.963 147.569 153.962 150.796 144.551 145.363L22.8404 74.8158C13.4294 69.3831 10.2155 57.3334 15.6262 47.8842C20.96 38.435 32.9609 35.1994 42.3719 40.6407V40.6407Z" fill="#DD0000" stroke="white" stroke-width="5" stroke-miterlimit="10"/>
</svg>
